<svg xmlns="http://www.w3.org/2000/svg" width="552" height="786" viewBox="0 0 552 786">
  <style>
    .mono { font-family: "IBM Plex Mono", monospace; }
    .sans { font-family: -apple-system, BlinkMacSystemFont, "Segoe UI", sans-serif; }
  </style>
  <text x="18" y="25" class="sans" font-size="13" font-weight="600" fill="#f2f3f4">Decision topology</text>
  <text x="18" y="45" class="mono" font-size="9" fill="#7c8589">5 FIX NODES → 1 SYNTHESIS NODE</text>
  <text x="534" y="28" text-anchor="end" class="mono" font-size="9" fill="#63d49e">REACT-FORCE-GRAPH-3D · LIVE</text>
  <path d="M0 58H552" stroke="#2a2f31"/>
  <g opacity=".22" fill="#8d969a">
    <circle cx="46" cy="92" r="1"/><circle cx="188" cy="84" r="1"/><circle cx="323" cy="109" r="1"/><circle cx="505" cy="91" r="1"/>
    <circle cx="30" cy="258" r="1"/><circle cx="238" cy="237" r="1"/><circle cx="492" cy="261" r="1"/>
    <circle cx="62" cy="546" r="1"/><circle cx="275" cy="575" r="1"/><circle cx="516" cy="526" r="1"/>
  </g>
  <g fill="none" stroke-linecap="round">
    <path d="M128 120L398 330" stroke="#a57833" stroke-width="2" opacity=".72"/>
    <path d="M128 220L398 330" stroke="#c19447" stroke-width="2.5" opacity=".78"/>
    <path d="M132 320L398 330" stroke="#63d49e" stroke-width="4"/>
    <path d="M128 420L398 330" stroke="#8b8f77" stroke-width="2.3" opacity=".75"/>
    <path d="M128 520L398 330" stroke="#8a6b38" stroke-width="1.8" opacity=".62"/>
  </g>
  <g class="mono" font-size="9" fill="#aab0b3">
    <text x="258" y="207">64</text><text x="265" y="260">78</text><text x="270" y="312" fill="#63d49e">86 · NEXT</text><text x="262" y="385">72</text><text x="255" y="454">59</text>
  </g>
  <g class="sans" text-anchor="middle">
    <g><circle cx="96" cy="120" r="31" fill="#191712" stroke="#8a6527" stroke-width="1.5"/><circle cx="88" cy="111" r="5" fill="#f2a62b" opacity=".65"/><text x="96" y="126" font-size="15" font-weight="600" fill="#f2f3f4">A1</text><text x="96" y="163" font-size="10" fill="#aab0b3">minimal patch</text></g>
    <g><circle cx="96" cy="220" r="31" fill="#121b17" stroke="#3f765d" stroke-width="1.5"/><circle cx="88" cy="211" r="5" fill="#63d49e" opacity=".65"/><text x="96" y="226" font-size="15" font-weight="600" fill="#f2f3f4">A2</text><text x="96" y="263" font-size="10" fill="#aab0b3">boundary fix</text></g>
    <g><circle cx="96" cy="320" r="36" fill="#11231a" stroke="#63d49e" stroke-width="2.5"/><circle cx="86" cy="309" r="6" fill="#63d49e"/><text x="96" y="326" font-size="16" font-weight="700" fill="#f2f3f4">A3</text><text x="96" y="367" font-size="10" fill="#63d49e">memory guided · selected</text></g>
    <g><circle cx="96" cy="420" r="31" fill="#121b17" stroke="#3f765d" stroke-width="1.5"/><circle cx="88" cy="411" r="5" fill="#63d49e" opacity=".65"/><text x="96" y="426" font-size="15" font-weight="600" fill="#f2f3f4">A4</text><text x="96" y="463" font-size="10" fill="#aab0b3">test first</text></g>
    <g><circle cx="96" cy="520" r="31" fill="#191712" stroke="#8a6527" stroke-width="1.5"/><circle cx="88" cy="511" r="5" fill="#f2a62b" opacity=".65"/><text x="96" y="526" font-size="15" font-weight="600" fill="#f2f3f4">A5</text><text x="96" y="563" font-size="10" fill="#aab0b3">type hardening</text></g>
    <g><circle cx="430" cy="330" r="57" fill="#171b1d" stroke="#f2a62b" stroke-width="2.5"/><circle cx="414" cy="313" r="8" fill="#f2a62b"/><text x="430" y="334" font-size="19" font-weight="700" fill="#f2f3f4">A6</text><text x="430" y="355" class="mono" font-size="9" fill="#f2a62b">SYNTHESIS</text><text x="430" y="410" font-size="10" fill="#aab0b3">decision rev · 07</text></g>
  </g>
  <circle cx="302" cy="316" r="4" fill="#63d49e"/><circle cx="338" cy="320" r="3" fill="#63d49e" opacity=".7"/>
  <path d="M18 608H534" stroke="#2a2f31"/>
  <rect x="18" y="634" width="516" height="92" rx="7" fill="#111416" stroke="#2a2f31"/>
  <text x="34" y="660" class="mono" font-size="9" letter-spacing="1" fill="#7c8589">CONVERGENCE PATH</text>
  <text x="34" y="690" class="sans" font-size="12" fill="#f2f3f4">A6 proposes</text><text x="134" y="690" class="mono" font-size="11" fill="#63d49e">A3 · cand_03</text>
  <text x="278" y="690" class="mono" font-size="10" fill="#7c8589">→  SNYK  →  1 SANDBOX  →  DRAFT PR</text>
  <text x="18" y="760" class="mono" font-size="9" fill="#7c8589">CLICK A FIX NODE TO UPDATE THE LEFT INSPECTOR</text>
</svg>
